HIERARCHY
ROOT Hips
{
  OFFSET -35.4901 99.2528 17.4586
  CHANNELS 6 Xposition Yposition Zposition Zrotation Xrotation Yrotation
  JOINT LeftUpLeg
  {
    OFFSET 8.64259 1.95398 -2.38835
    CHANNELS 3 Zrotation Xrotation Yrotation
    JOINT LeftLeg
    {
      OFFSET 43.7702 0 0
      CHANNELS 3 Zrotation Xrotation Yrotation
      JOINT LeftFoot
      {
        OFFSET 40.6238 0 0
        CHANNELS 3 Zrotation Xrotation Yrotation
        JOINT LeftToeBase
        {
          OFFSET 12.7242 0 0
          CHANNELS 3 Zrotation Xrotation Yrotation
          End Site
          {
            OFFSET 0 0 0
          }
        }
      }
    }
  }
  JOINT RightUpLeg
  {
    OFFSET -8.2249 1.95398 -2.59336
    CHANNELS 3 Zrotation Xrotation Yrotation
    JOINT RightLeg
    {
      OFFSET 43.5653 0 0
      CHANNELS 3 Zrotation Xrotation Yrotation
      JOINT RightFoot
      {
        OFFSET 40.6238 0 0
        CHANNELS 3 Zrotation Xrotation Yrotation
        JOINT RightToeBase
        {
          OFFSET 12.7242 0 0
          CHANNELS 3 Zrotation Xrotation Yrotation
          End Site
          {
            OFFSET 0 0 0
          }
        }
      }
    }
  }
  JOINT Spine
  {
    OFFSET 0.165834 0.87714 6.61349
    CHANNELS 3 Zrotation Xrotation Yrotation
    JOINT Spine1
    {
      OFFSET 7.38963 1.71661e-005 0
      CHANNELS 3 Zrotation Xrotation Yrotation
      JOINT Spine2
      {
        OFFSET 11.9445 1.14441e-005 0
        CHANNELS 3 Zrotation Xrotation Yrotation
        JOINT Spine3
        {
          OFFSET 14.7254 4.19617e-005 0
          CHANNELS 3 Zrotation Xrotation Yrotation
          JOINT Spine4
          {
            OFFSET 10.9679 0 0
            CHANNELS 3 Zrotation Xrotation Yrotation
            JOINT RightShoulder
            {
              OFFSET 2.46616 -1.6653 3.69651
              CHANNELS 3 Zrotation Xrotation Yrotation
              JOINT RightArm
              {
                OFFSET 13.0012 0 0
                CHANNELS 3 Zrotation Xrotation Yrotation
                JOINT RightForeArm
                {
                  OFFSET 28.7848 1.52588e-005 0
                  CHANNELS 3 Zrotation Xrotation Yrotation
                  JOINT RightHand
                  {
                    OFFSET 26.5688 1.52588e-005 0
                    CHANNELS 3 Zrotation Xrotation Yrotation
                    End Site
                    {
                      OFFSET 0 0 0
                    }
                  }
                }
              }
            }
            JOINT LeftShoulder
            {
              OFFSET 2.38034 -1.29275 -3.7523
              CHANNELS 3 Zrotation Xrotation Yrotation
              JOINT LeftArm
              {
                OFFSET 16.3182 6.10351e-005 0
                CHANNELS 3 Zrotation Xrotation Yrotation
                JOINT LeftForeArm
                {
                  OFFSET 27.0901 0 0
                  CHANNELS 3 Zrotation Xrotation Yrotation
                  JOINT LeftHand
                  {
                    OFFSET 24.5451 1.52588e-005 0
                    CHANNELS 3 Zrotation Xrotation Yrotation
                    End Site
                    {
                      OFFSET 0 0 0
                    }
                  }
                }
              }
            }
            JOINT Neck
            {
              OFFSET 5.0226 -0.0266342 0
              CHANNELS 3 Zrotation Xrotation Yrotation
              JOINT Head
              {
                OFFSET 6.69364 2.86102e-005 0
                CHANNELS 3 Zrotation Xrotation Yrotation
                End Site
                {
                  OFFSET 0 0 0
                }
              }
            }
          }
        }
      }
    }
  }
}
MOTION
Frames:	10
Frame Time:	0.0416667
226.476 101.977 -229.564 -98.8654 -50.4373 -97.6467 -178.576 -1.57282 89.051 -11.3844 4.77388 1.05934 70.558 4.18378 -4.27614 13.9912 -2.05555 3.77249 169.137 -5.46834 86.9341 -7.11623 -9.19978 -0.251516 68.7219 -4.52289 -0.579371 20.9029 -1.38675 4.05901 0.497154 7.5831 -90.0371 11.7088 0.971483 -0.175789 0.0381945 0.96282 -0.218388 -22.4999 0.979393 0.124341 -2.48721 0.979409 0.124329 88.8528 -31.8227 -108.288 41.1868 -8.69393 -7.70032 6.06246 -27.1991 -11.8302 -23.1143 -0.291984 -6.86911 -84.8456 -49.8967 86.4597 -28.6509 14.8132 -19.1662 0.627352 0.472734 -3.39346 -3.87995 0.0156768 -12.4296 7.00199 3.81294 -2.35361 -10.169 4.11312 1.56004 
226.492 101.985 -229.622 -98.5172 -50.3847 -97.2264 -178.405 -1.27292 89.3185 -11.493 5.23787 0.961791 70.4694 4.166 -4.33185 14.1475 -2.04086 3.75255 169.306 -5.13601 87.1492 -7.35768 -8.67902 -0.229025 68.6397 -4.3898 0.0999242 20.9049 -1.10985 3.44345 0.475016 7.51243 -90.0536 11.8501 0.919446 -0.205069 0.179487 0.909526 -0.245338 -22.3583 0.938559 0.080767 -2.34563 0.938567 0.0807789 88.6489 -31.7962 -108.69 41.3837 -8.61176 -7.1934 4.37068 -25.3196 -13.032 -23.5957 -0.508966 -5.33504 -84.7301 -49.8759 86.6315 -28.6748 15.0331 -18.4904 0.467358 -0.354756 -3.71427 -3.13246 -0.0390754 -10.8717 5.37945 4.36264 -2.45233 -8.01747 4.69631 1.1037 
226.393 101.929 -229.633 -98.8159 -50.4126 -97.3963 -178.296 -1.61961 89.34 -11.4269 9.38327 1.19923 70.0866 4.39782 -0.58812 15.5008 -3.02631 5.03035 169.375 -5.9331 87.303 -6.32885 -8.93554 -0.250485 68.7582 -4.67823 -0.663238 20.2159 -1.30416 3.90299 0.470989 7.52705 -90.0482 11.8209 0.914033 -0.193366 0.150275 0.904622 -0.233414 -22.3875 0.929876 0.0902978 -2.37482 0.929879 0.0902988 88.812 -32.2826 -108.186 41.2336 -8.7582 -7.31725 5.19694 -26.2465 -12.2843 -23.5572 -0.363127 -6.29176 -84.6796 -49.9038 86.7113 -28.5599 14.8927 -18.5684 0.554403 0.215772 -3.56488 -2.41174 -0.084415 -9.61926 5.47831 4.16833 -2.68959 -8.18634 4.54658 1.15328 
226.443 101.954 -229.67 -98.7775 -50.3098 -97.6127 -178.526 -1.76559 89.0283 -11.07 8.5948 1.27164 69.9664 4.34847 -1.03919 15.1413 -2.84252 4.78786 169.152 -5.34776 86.9701 -7.20685 -9.14595 -0.198109 68.8347 -4.56775 -0.512115 20.7122 -1.30945 3.89567 0.472706 7.53716 -90.0391 11.8006 0.921902 -0.175774 0.129955 0.913267 -0.216195 -22.4078 0.932096 0.109438 -2.39517 0.932104 0.109441 88.9921 -32.1963 -107.876 41.1689 -8.85155 -7.38619 4.62261 -26.6903 -12.8347 -22.366 -0.407 -6.1485 -84.6693 -50.1784 86.761 -28.4595 15.3458 -18.5639 0.402053 -0.0738678 -4.04179 -5.22222 0.0628757 -10.5425 5.93014 4.26501 -2.36427 -8.48027 4.59221 1.0312 
226.305 101.944 -229.726 -99.0094 -50.2681 -97.6131 -178.08 -1.8626 89.438 -11.1855 9.74323 0.948536 69.9453 4.42308 0.0975341 15.6898 -2.69147 4.58718 169.351 -5.98009 87.2718 -6.43005 -9.33108 -0.262599 68.6462 -4.63952 -1.02842 20.468 -1.53456 4.39852 0.476816 7.54744 -90.0517 11.7802 0.924035 -0.200961 0.109513 0.914285 -0.241439 -22.4283 0.941704 0.086074 -2.41562 0.941698 0.0860614 89.146 -31.8456 -107.716 41.7061 -8.82002 -7.34614 5.46296 -26.5097 -12.3394 -24.6787 -0.505333 -5.51583 -84.5866 -50.027 86.8671 -28.7092 15.1045 -18.5941 0.491886 -0.101295 -3.814 -3.90444 -0.00672867 -10.6318 6.00782 4.16086 -2.54246 -8.85381 4.51093 1.22921 
226.315 101.953 -229.79 -99.0865 -50.3045 -97.7653 -178.149 -1.90272 89.4358 -10.9801 9.12046 0.985948 69.4351 4.1443 -1.56787 17.115 -3.09906 5.13772 169.238 -5.91238 87.1571 -6.57303 -8.99087 -0.200052 68.7466 -4.65576 -0.580759 20.5047 -1.36201 4.01759 0.472257 7.55976 -90.0673 11.7555 0.907679 -0.229921 0.0848796 0.896682 -0.269665 -22.4528 0.934834 0.0535319 -2.44017 0.934812 0.0535178 89.3989 -31.5204 -107.354 41.8945 -8.72883 -7.47469 5.69811 -26.8111 -12.1737 -24.5462 -0.467434 -5.76414 -84.6149 -50.5438 86.8879 -28.2325 15.1619 -18.6946 0.415818 -0.240814 -3.91122 -2.87219 -0.0640525 -10.2558 6.08357 4.21998 -2.07327 -8.70367 4.49659 0.968614 
226.335 101.963 -229.853 -98.9383 -50.172 -97.824 -178.22 -1.87409 89.2184 -10.8712 9.2754 0.938721 69.4316 4.2135 -0.665944 16.5706 -2.79617 4.73186 169.048 -5.52562 86.9211 -6.94512 -9.59161 -0.139393 68.6965 -4.59443 -0.799182 20.9085 -1.39942 4.08552 0.493199 7.56199 -90.0525 11.7511 0.95628 -0.205495 0.0805136 0.946301 -0.247393 -22.4574 0.973835 0.0914363 -2.44482 0.973828 0.0914282 89.4064 -31.54 -107.332 41.8491 -8.83542 -7.50281 4.8749 -26.6908 -12.846 -23.8496 -0.47985 -5.69177 -84.6264 -50.329 86.8444 -28.7306 14.5134 -18.7633 0.87277 0.954115 -3.6429 -1.81918 -0.114254 -9.00778 6.15131 4.24939 -2.05656 -8.45296 4.52724 0.927152 
226.252 101.939 -229.964 -98.7246 -50.0839 -97.724 -178.206 -1.73987 89.2505 -10.8632 9.18888 0.898521 69.5816 4.26011 -0.782787 16.1276 -2.92795 4.90319 169.261 -5.14436 87.0466 -7.43709 -9.31411 -0.283524 69.0763 -4.66624 -0.477468 20.4118 -1.40991 4.12616 0.488403 7.53986 -90.0299 11.7952 0.957384 -0.161072 0.124589 0.949372 -0.203061 -22.4134 0.961531 0.134136 -2.40074 0.961535 0.134133 89.0075 -32.1207 -107.876 41.4789 -8.35372 -7.2167 4.58029 -25.9751 -13.1627 -22.5889 -0.380841 -6.19325 -84.5054 -50.4209 87.0374 -28.7903 13.8104 -18.5089 1.2531 1.87806 -3.61136 -0.114402 -0.151179 -7.18811 5.98743 4.43856 -2.03765 -8.23707 4.70033 1.08172 
226.148 101.965 -230.017 -99.2014 -50.1608 -97.9469 -178.222 -2.0113 89.3947 -11.1207 8.84597 1.13651 70.1793 4.50685 -0.855572 14.6502 -2.72591 4.63351 169.307 -5.60265 87.24 -7.41874 -9.22419 -0.236768 69.3586 -4.84626 -0.641668 19.853 -1.00079 3.25852 0.487758 7.59785 -90.0613 11.6794 0.941498 -0.220554 0.00879126 0.930843 -0.261783 -22.5291 0.964254 0.0726294 -2.51646 0.964225 0.0726123 89.091 -31.885 -107.807 41.7077 -8.24146 -7.33354 4.39572 -26.1433 -13.0343 -22.9445 -0.375895 -6.23249 -84.4433 -50.3568 87.123 -29.0606 14.4736 -18.8454 0.995881 1.42151 -3.70564 -4.69614 0.021495 -9.88957 6.34065 4.33251 -1.91882 -8.45644 4.58223 0.965038 
226.012 101.973 -230.082 -99.3134 -50.1137 -98.0375 -177.944 -2.21037 89.6529 -10.8452 9.32035 0.894113 69.8917 4.43987 -0.935199 15.5261 -2.90663 4.87148 169.341 -5.61632 87.2991 -7.54269 -9.15245 -0.215478 69.4461 -4.93222 -0.599631 19.774 -1.19759 3.68774 0.49444 7.59421 -90.0604 11.6845 0.955147 -0.220268 0.0138692 0.944527 -0.262098 -22.5241 0.977195 0.0770092 -2.51145 0.977199 0.0770063 89.0961 -31.8394 -107.815 41.7786 -8.60131 -7.33216 4.61546 -24.485 -12.8539 -23.2072 -0.13273 -7.35429 -84.5266 -50.646 87.0326 -28.1659 14.7395 -18.9819 0.617332 0.629394 -3.41691 -3.20903 -0.0532712 -9.54402 5.84721 4.25341 -2.06556 -8.17265 4.51885 1.14504 
